<?xml version="1.0" encoding="utf-8"?>
<!-- Generator: Adobe Illustrator 21.0.2, SVG Export Plug-In . SVG Version: 6.00 Build 0)  -->
<svg version="1.1" id="Layer_1" xmlns="http://www.w3.org/2000/svg" xmlns:xlink="http://www.w3.org/1999/xlink" x="0px" y="0px"
	 viewBox="0 0 822 822" style="enable-background:new 0 0 822 822;" xml:space="preserve">
<style type="text/css">
	.st0{fill:#2C252B;}
	.st1{fill:#F1F6F3;}
	.st2{fill:#FAFDFB;}
</style>
<g>
	<path class="st0" d="M95.7,472.1c-2.4-2.4-1.4-6.8,0.1-10.2c0,0-0.1,0.1-0.1,0.1c0.9-2.1,2.1-3.3,5.8-4.9c9.9-3.9,19.1-9,27.5-15.9
		c-7.2-0.3-14.1-1.8-21.2-1c-6.5,0.7-13.1-0.1-19.3-2.4c-4.2-1.6-4.7-4.9-2.6-9c1.5-2.8,3.4-4.4,6.4-6.2
		c10.3-6.3,20.8-11.5,30.6-18.5c8.2-5.9,18.6-10.1,24.5-18.6c4.1-6,8.9-11.2,14-16.1c16.1-15,34.9-24.2,57.4-22
		c34.6,3.4,56.5,22.9,67.3,55.3c1.5,4.4,3.9,5.1,7.7,5.2c16.7,0.6,329-3.7,357.6-2.1c4.3,0.2,5.7,2.5,3.7,6.7
		c-1.6,3.5-22.6,34.6-30.8,47.2c-3.9,6-5.8,5.8-11.4,0.7c-3.4-3.1-24-31.4-32.3-42.6c-0.5,2.6-1,4-1.1,5.5
		c-1.8,26.7-11.9,50.4-27.3,71.8c-25.4,35.2-59.7,56-103,60.4c-34,3.4-65.7-4.6-94.2-23.4c-27-17.8-47-41.6-58.5-72.2
		c-2.6-7-3.9-14.8-9.4-22c-2.1,10.4-5.2,18.9-10.4,26.8c-22.9,35.3-70.2,47.5-107.8,20.6c-6.7-4.8-13-7-20.7-7
		c-3.3,0-6.6-0.1-9.8-0.5C124.4,476,103.4,479.7,95.7,472.1z M203.8,437.3c14,0.2,23.2-8.5,23.4-21.8c0.1-12-10.7-23.2-22.3-23.1
		c-12,0.1-22,10.7-22.1,23.3C182.7,428.1,191.5,437.1,203.8,437.3z"/>
	<path class="st1" d="M239.6,211.6c4.2,0.6,5,3.7,5.6,6.6c0.3,1.6-0.8,3.4-2.4,3.3c-4.2-0.2-3.7-4.7-5.6-7.1
		C236.2,213.2,238.6,212.3,239.6,211.6z"/>
	<path class="st1" d="M93.5,362.3c2.3,2.2,5.7,3.7,4.3,7.1c-0.7,1.8-3,1.6-4.6,0.6C89.1,367.5,93.2,365,93.5,362.3z"/>
	<path class="st1" d="M283.6,214.9c-2.1-0.1-2.3-1.5-2.6-2.5c-0.4-1.1,0.1-2,1.4-2.1c1.5-0.1,2.4,0.7,2.3,2.2
		C284.5,213.4,283.9,214.2,283.6,214.9z"/>
	<path class="st1" d="M127.9,490.4c-0.2,1.3-1.2,1.4-2.2,1.4c-1,0-2.1-0.1-2.1-1.4c0-1.3,1.2-1.4,2.2-1.4
		C126.7,489,127.8,489,127.9,490.4z"/>
	<path class="st1" d="M480.4,561.6c-2.4-0.3-5.6,1-6.1-3c0,0,0,0,0,0C476.7,558.8,479.9,557.5,480.4,561.6L480.4,561.6z"/>
	<path class="st1" d="M480.4,561.6c1.8,0.1,3.9-0.4,5.9,1.8C483.1,564.8,481.1,565.3,480.4,561.6L480.4,561.6z"/>
	<path class="st1" d="M366.1,566.5c-0.4,0.2-0.9,0.6-1.2,0.4c-0.3-0.1-0.4-0.8-0.5-1.2c0.4-0.2,0.9-0.6,1.2-0.4
		C365.9,565.5,366,566.1,366.1,566.5z"/>
	<path class="st1" d="M203.8,437.3c-12.3-0.1-21.1-9.2-21-21.6c0.1-12.6,10.1-23.2,22.1-23.3c11.6-0.1,22.4,11.1,22.3,23.1
		C227,428.8,217.8,437.4,203.8,437.3z"/>
	<path class="st0" d="M298.1,402.4c-6.5-1.9-9.3-4.8-11.6-9.5c-19.3-38.1-38.3-76.4-57.6-114.5c-5.1-10-11.2-19.5-16.3-29.5
		c-2-3.9-6.6-8.6-1.6-12.9c4.7-4.1,8.8-3.9,16.2-3.5c10.5,0.6,131.9,9.4,182.4,10.2c4.1,0.1,6.2-3,7.8-5.1
		c5.6-7.1,9.8-14.4,16.1-20.9c4.2-4.3,9-5.8,14.6-5.2c52.8,5,239,16.5,242.2,16.7c7.4,0.4,8,1.1,4,7.5c-12.7,20-27.2,38.8-41,58
		c-18.5,25.7-36.8,51.7-55.4,77.3c-6.2,8.4-11.9,17.3-19.1,24.9c-3,3.2-6.1,3.7-10,3.7C568.6,399.7,305.6,404.6,298.1,402.4z
		 M547.3,352.6c4.4,0.2,7.2-0.9,10-4.8c18.6-25.7,35.7-52.4,53.9-78.4c2.7-3.9,0.4-4.2-2.4-4.4c-5.8-0.6-118.4-6.8-134.5-7.9
		c-6.2-0.5-10.6,1.1-14.8,6.5c-13.4,17.7-56.9,71.9-64.6,81.8c-1.4,1.8-3.9,3.5-2.7,5.8C393.8,353.8,540.5,352.3,547.3,352.6z
		 M291.9,286.2c9.6,21.6,21.1,41.6,32.8,62.5c16.5-19.5,31.6-39.1,49.5-58.4C346.1,288.9,319.2,287.6,291.9,286.2z"/>
	<path class="st2" d="M662.1,295c1.6,0.1,3,0.5,2.9,2.5c-0.1,2-1.5,3.2-3.4,3.2c-1.9,0-3.5-0.9-3.3-3
		C658.5,295.6,660.2,295.1,662.1,295z"/>
	<path class="st2" d="M689.6,221.8c-0.6-0.7-1.3-1.1-1.3-1.6c-0.1-0.6,0.3-1.6,0.7-1.8c1.1-0.4,1.7,0.4,1.7,1.4
		C690.7,220.4,690.1,221,689.6,221.8z"/>
	<path class="st2" d="M687.5,397.9c-0.7-0.5-1.6-0.7-1.8-1.2c-0.3-1.2,0.7-1.7,1.6-1.5c0.5,0.1,1.2,0.7,1.3,1.2
		C688.7,396.8,688,397.3,687.5,397.9z"/>
	<path class="st2" d="M672.2,374.8c-0.2,0.4-0.4,0.8-0.5,1.2c-0.4-0.2-1.1-0.3-1.2-0.6c-0.1-0.3,0.3-0.8,0.5-1.2
		C671.3,374.4,671.7,374.6,672.2,374.8z"/>
	<path class="st2" d="M664.3,433.2c0.2-0.4,0.3-1.1,0.6-1.2c0.3-0.1,0.8,0.3,1.2,0.5c-0.2,0.4-0.3,1.1-0.6,1.2
		C665.2,433.8,664.7,433.4,664.3,433.2z"/>
</g>
</svg>
